<svg xmlns="http://www.w3.org/2000/svg" xmlns:xlink="http://www.w3.org/1999/xlink" width="500" zoomAndPan="magnify" viewBox="0 0 375 74.999997" height="100" preserveAspectRatio="xMidYMid meet" version="1.0"><defs><g/><clipPath id="518fb55f03"><path d="M 2.316406 10.457031 L 78.019531 10.457031 L 78.019531 62.957031 L 2.316406 62.957031 Z M 2.316406 10.457031 " clip-rule="nonzero"/></clipPath></defs><g fill="#ffffff" fill-opacity="1"><g transform="translate(72.905631, 61.705901)"><g><path d="M 3.21875 -3.15625 L 4.453125 -13.4375 C 6.328125 -12.113281 8.1875 -11.164062 10.03125 -10.59375 C 11.882812 -10.019531 13.566406 -9.6875 15.078125 -9.59375 C 16.585938 -9.5 17.707031 -9.476562 18.4375 -9.53125 C 19.894531 -9.625 21.140625 -10.132812 22.171875 -11.0625 C 23.203125 -12 23.648438 -13.132812 23.515625 -14.46875 C 23.421875 -15.882812 22.894531 -16.957031 21.9375 -17.6875 C 20.976562 -18.414062 19.8125 -19.007812 18.4375 -19.46875 C 15.875 -20.425781 13.484375 -21.53125 11.265625 -22.78125 C 9.054688 -24.039062 7.273438 -25.609375 5.921875 -27.484375 C 4.578125 -29.359375 3.90625 -31.664062 3.90625 -34.40625 C 3.90625 -37.144531 4.488281 -39.625 5.65625 -41.84375 C 6.820312 -44.0625 8.453125 -45.832031 10.546875 -47.15625 C 12.648438 -48.476562 15.050781 -49.210938 17.75 -49.359375 C 19.03125 -49.441406 20.59375 -49.390625 22.4375 -49.203125 C 24.289062 -49.023438 26.796875 -48.390625 29.953125 -47.296875 L 28.71875 -37.84375 C 26.019531 -38.9375 23.867188 -39.5625 22.265625 -39.71875 C 20.671875 -39.882812 19.488281 -39.941406 18.71875 -39.890625 C 16.976562 -39.796875 15.707031 -39.203125 14.90625 -38.109375 C 14.101562 -37.015625 13.75 -35.78125 13.84375 -34.40625 C 13.976562 -33.039062 14.570312 -32.003906 15.625 -31.296875 C 16.675781 -30.585938 17.910156 -29.976562 19.328125 -29.46875 C 21.890625 -28.5625 24.242188 -27.429688 26.390625 -26.078125 C 28.535156 -24.734375 30.257812 -23.113281 31.5625 -21.21875 C 32.863281 -19.320312 33.515625 -17.070312 33.515625 -14.46875 C 33.515625 -11.769531 32.921875 -9.320312 31.734375 -7.125 C 30.546875 -4.9375 28.84375 -3.175781 26.625 -1.84375 C 24.414062 -0.519531 21.78125 0.226562 18.71875 0.40625 C 17.800781 0.457031 16.550781 0.425781 14.96875 0.3125 C 13.394531 0.195312 11.601562 -0.117188 9.59375 -0.640625 C 7.582031 -1.171875 5.457031 -2.007812 3.21875 -3.15625 Z M 3.21875 -3.15625 "/></g></g></g><g fill="#ffffff" fill-opacity="1"><g transform="translate(109.163715, 61.705901)"><g><path d="M 30.84375 0 L 5.484375 0 L 5.484375 -49.015625 L 30.03125 -49.015625 L 30.03125 -39.203125 L 15.28125 -39.203125 L 15.28125 -29.40625 L 28.171875 -29.40625 L 28.171875 -19.609375 L 15.28125 -19.609375 L 15.28125 -9.796875 L 30.84375 -9.796875 Z M 30.84375 0 "/></g></g></g><g fill="#ffffff" fill-opacity="1"><g transform="translate(143.70828, 61.705901)"><g><path d="M 29.953125 -39.203125 L 15.28125 -39.203125 L 15.28125 -29.40625 L 27.765625 -29.40625 L 27.765625 -19.609375 L 15.28125 -19.609375 L 15.28125 0 L 5.484375 0 L 5.484375 -49.015625 L 29.953125 -49.015625 Z M 29.953125 -39.203125 "/></g></g></g><g fill="#ffffff" fill-opacity="1"><g transform="translate(176.265156, 61.705901)"><g><path d="M 30.84375 0 L 5.484375 0 L 5.484375 -49.015625 L 30.03125 -49.015625 L 30.03125 -39.203125 L 15.28125 -39.203125 L 15.28125 -29.40625 L 28.171875 -29.40625 L 28.171875 -19.609375 L 15.28125 -19.609375 L 15.28125 -9.796875 L 30.84375 -9.796875 Z M 30.84375 0 "/></g></g></g><g fill="#ffffff" fill-opacity="1"><g transform="translate(210.809721, 61.705901)"><g><path d="M 29.890625 0 L 20.015625 -18.71875 L 15.28125 -18.71875 L 15.28125 0 L 5.484375 0 L 5.484375 -49.015625 L 24.8125 -49.015625 C 27.738281 -49.015625 30.21875 -48.40625 32.25 -47.1875 C 34.28125 -45.976562 35.867188 -44.398438 37.015625 -42.453125 C 38.160156 -40.515625 38.867188 -38.414062 39.140625 -36.15625 C 39.410156 -33.894531 39.238281 -31.675781 38.625 -29.5 C 38.007812 -27.332031 36.957031 -25.414062 35.46875 -23.75 C 33.988281 -22.082031 32.035156 -20.90625 29.609375 -20.21875 L 40.984375 0 Z M 15.28125 -28.234375 L 23.921875 -28.234375 C 25.242188 -28.234375 26.304688 -28.597656 27.109375 -29.328125 C 27.910156 -30.066406 28.445312 -30.984375 28.71875 -32.078125 C 28.988281 -33.171875 28.988281 -34.265625 28.71875 -35.359375 C 28.445312 -36.460938 27.910156 -37.378906 27.109375 -38.109375 C 26.304688 -38.835938 25.242188 -39.203125 23.921875 -39.203125 L 15.28125 -39.203125 Z M 15.28125 -28.234375 "/></g></g></g><g fill="#ff914d" fill-opacity="1"><g transform="translate(252.825259, 61.705901)"><g><path d="M 5.484375 0 L 5.484375 -49.078125 L 24.875 -49.078125 C 27.800781 -49.078125 30.316406 -48.4375 32.421875 -47.15625 C 34.523438 -45.875 36.132812 -44.113281 37.25 -41.875 C 38.375 -39.632812 38.890625 -37.078125 38.796875 -34.203125 C 38.753906 -32.378906 38.378906 -30.570312 37.671875 -28.78125 C 36.960938 -27 35.828125 -25.585938 34.265625 -24.546875 C 35.867188 -23.441406 37.113281 -22.007812 38 -20.25 C 38.894531 -18.488281 39.34375 -16.648438 39.34375 -14.734375 C 39.34375 -11.992188 38.691406 -9.515625 37.390625 -7.296875 C 36.085938 -5.078125 34.335938 -3.304688 32.140625 -1.984375 C 29.953125 -0.660156 27.53125 0 24.875 0 Z M 15.359375 -39.28125 L 15.359375 -29.40625 L 24.0625 -29.40625 C 25.476562 -29.40625 26.582031 -29.894531 27.375 -30.875 C 28.175781 -31.863281 28.578125 -33.019531 28.578125 -34.34375 C 28.578125 -35.707031 28.175781 -36.867188 27.375 -37.828125 C 26.582031 -38.796875 25.476562 -39.28125 24.0625 -39.28125 Z M 15.359375 -19.609375 L 15.359375 -9.796875 L 24.0625 -9.796875 C 25.476562 -9.796875 26.65625 -10.273438 27.59375 -11.234375 C 28.53125 -12.203125 29 -13.367188 29 -14.734375 C 29 -16.109375 28.53125 -17.265625 27.59375 -18.203125 C 26.65625 -19.140625 25.476562 -19.609375 24.0625 -19.609375 Z M 15.359375 -19.609375 "/></g></g></g><g fill="#ff914d" fill-opacity="1"><g transform="translate(295.389093, 61.705901)"><g><path d="M 40.640625 -17.0625 C 40.640625 -13.726562 40 -10.875 38.71875 -8.5 C 37.445312 -6.125 35.757812 -4.226562 33.65625 -2.8125 C 31.550781 -1.394531 29.242188 -0.445312 26.734375 0.03125 C 24.222656 0.507812 21.695312 0.507812 19.15625 0.03125 C 16.625 -0.445312 14.304688 -1.394531 12.203125 -2.8125 C 10.097656 -4.226562 8.40625 -6.125 7.125 -8.5 C 5.84375 -10.875 5.203125 -13.726562 5.203125 -17.0625 L 5.203125 -49.015625 L 15.015625 -49.015625 L 15.015625 -17.140625 C 15.015625 -15.078125 15.550781 -13.425781 16.625 -12.1875 C 17.695312 -10.957031 19.019531 -10.132812 20.59375 -9.71875 C 22.175781 -9.3125 23.753906 -9.3125 25.328125 -9.71875 C 26.898438 -10.132812 28.222656 -10.957031 29.296875 -12.1875 C 30.378906 -13.425781 30.921875 -15.078125 30.921875 -17.140625 L 30.921875 -49.015625 L 40.640625 -49.015625 Z M 40.640625 -17.0625 "/></g></g></g><g fill="#ff914d" fill-opacity="1"><g transform="translate(341.379962, 61.705901)"><g><path d="M 5.484375 -49.015625 L 15.28125 -49.015625 L 15.28125 -9.796875 L 30.84375 -9.796875 L 30.84375 0 L 5.484375 0 Z M 5.484375 -49.015625 "/></g></g></g><g clip-path="url(#518fb55f03)"><path fill="#ff914d" d="M 40.167969 10.457031 C 19.25 10.457031 2.289062 27.417969 2.289062 48.332031 C 2.289062 50.847656 2.535156 53.300781 3.003906 55.679688 C 10.738281 54.15625 17.054688 52.4375 24.972656 49.289062 C 17.375 53.414062 9.960938 55.632812 3.398438 57.457031 C 3.582031 58.1875 3.785156 58.910156 4.003906 59.625 C 10.257812 57.464844 17.363281 54.566406 21.847656 52.0625 C 23.402344 51.195312 24.636719 50.378906 25.398438 49.664062 C 26.054688 49.050781 26.339844 48.554688 26.128906 48.222656 C 26.054688 48.109375 25.929688 48.003906 25.738281 47.90625 L 25.507812 47.785156 C 22.613281 46.273438 10.839844 40.121094 10.007812 37.105469 C 9.789062 36.316406 10.144531 35.722656 11.285156 35.40625 C 18.179688 33.507812 27.796875 32.765625 37.703125 32.140625 C 48.617188 31.453125 63.597656 31.851562 72.207031 32.207031 C 64.007812 32.265625 51.949219 32.398438 42.230469 33.101562 C 34.859375 33.636719 27.789062 34.503906 21.625 35.839844 C 20.640625 36.054688 20.21875 36.273438 20.269531 36.503906 C 20.570312 37.882812 28.359375 40.476562 38.253906 43.777344 C 51.3125 48.128906 67.988281 53.6875 76.308594 59.6875 C 76.546875 58.933594 76.761719 58.171875 76.949219 57.402344 C 60.34375 48.359375 40.875 44.4375 23.484375 37.601562 C 41.347656 43.996094 59.617188 46.503906 77.394531 55.359375 C 77.820312 53.082031 78.046875 50.734375 78.046875 48.332031 C 78.046875 27.417969 61.082031 10.457031 40.167969 10.457031 Z M 35.015625 63.222656 C 39.316406 63.191406 44.699219 63.15625 49 63.125 C 48.800781 59.464844 46.828125 53.835938 43.597656 50.609375 L 39.328125 50.609375 C 39.921875 53.296875 38.914062 58.765625 35.015625 63.222656 Z M 42.328125 49.515625 C 41.679688 49.046875 40.992188 48.675781 40.265625 48.429688 C 38.953125 47.992188 37.476562 47.464844 35.90625 46.878906 L 33.535156 46.878906 C 35.144531 47.59375 36.761719 48.304688 38.378906 49.027344 C 38.582031 49.117188 38.757812 49.285156 38.910156 49.515625 Z M 33.539062 45.96875 C 31.890625 45.320312 30.183594 44.617188 28.484375 43.875 L 27.035156 43.875 C 28.515625 44.59375 30.007812 45.289062 31.507812 45.96875 Z M 27.050781 43.238281 C 22.4375 41.15625 18.019531 38.8125 15.183594 36.558594 C 14.175781 35.757812 17.351562 35.125 23.550781 34.171875 C 16.851562 34.996094 13.660156 35.808594 14.804688 36.660156 C 18.269531 39.226562 21.953125 41.335938 25.746094 43.238281 L 27.050781 43.238281 " fill-opacity="1" fill-rule="evenodd"/></g></svg>